<svg xmlns="http://www.w3.org/2000/svg" xmlns:xlink="http://www.w3.org/1999/xlink" id="Layer_1" x="0px" y="0px" viewBox="-66 -171 417 417" xml:space="preserve"><g transform="translate(0.000000,417.000000) scale(0.100000,-0.100000)">	<path fill="#FF6600" d="M1119,5634c-32-10-71-36-123-83c-94-86-128-96-244-74c-171,33-266-14-345-172c-54-108-85-130-209-146  c-78-10-132-34-178-81c-46-45-69-104-80-199c-13-117-41-154-157-212c-57-29-106-74-130-120c-24-47-28-142-9-206  c31-107,16-171-58-251c-83-89-111-181-83-272c8-25,39-84,68-131l53-84l91,44c49,24,97,49,106,57c13,11,17,43,22,162  c16,385,155,703,435,995c221,231,466,368,771,430c143,30,436,37,572,14c207-34,423-121,602-243c169-114,137-108,255-52  c56,27,102,51,102,54c0,16-65,178-85,212c-28,48-101,101-153,110c-19,4-71,4-116,1c-118-8-144,4-246,111c-70,73-94,92-138,106  c-66,22-128,15-212-25c-109-51-168-48-257,13C1288,5649,1210,5663,1119,5634z"></path>	<path fill="#FF6600" d="M1260,5189c-170-15-316-57-490-140c-405-193-667-519-760-948c-23-105-46-308-36-318c9-10,118,48,127,67  c4,8,12,58,18,110c52,463,396,885,839,1029c167,55,242,66,432,65c155-1,186-4,272-27c130-34,249-84,354-147l87-52l69,33l68,33  l-67,44C1882,5126,1554,5217,1260,5189z"></path>	<path fill="#FF6600" d="M1140,4900c-341-73-630-297-781-604c-47-98-114-319-107-357c2-11,210,87,845,400c464,229,843,419,843,423  c0,12-136,78-214,104C1560,4923,1312,4937,1140,4900z"></path>	<path fill="#FF6600" d="M2478,4721c-43-20-78-40-78-45c0-8,306-635,314-643c3-3,455,213,465,222c2,3-8,32-24,64l-28,60l-61-31  c-34-17-103-50-154-74l-92-43l-133,263l-132,263L2478,4721z"></path>	<path fill="#FF6600" d="M1927,4448c-76-38-97-53-93-66c2-9,21-182,42-384l38-366l83,41c59,29,82,46,79,57c-3,8-8,43-11,77l-7,62  l122,61l123,62l57-57l57-57l85,44l85,43l-126,119c-69,65-196,185-281,266l-155,148L1927,4448z M2113,4182l97-97l-84-42l-85-42  l-6,42c-23,170-31,237-25,237C2013,4280,2059,4236,2113,4182z"></path>	<path fill="#FF6600" d="M1360,4164c-83-17-213-81-273-134c-29-26-59-66-79-108c-30-60-33-76-33-152c0-77,4-92,37-162  c44-92,104-161,173-196c75-39,196-43,287-9c90,33,167,80,242,148l61,57l-79,160l-80,160l-148-74l-148-74l27-55c15-30,31-55,35-55  c5,0,36,14,69,30l60,31l30-67c36-79,34-83-54-114c-65-23-103-25-159-8c-77,23-158,132-174,234c-23,157,147,286,339,256  c32-5,60-5,63-1c2,5-11,40-31,79C1485,4190,1482,4191,1360,4164z"></path>	<path fill="#FF6600" d="M3005,3933c-49-25-93-50-96-55s-9-75-12-156c-13-293-92-533-261-787c-228-342-563-561-988-647  c-148-30-425-32-561-5c-119,24-250,68-360,121c-89,43-253,144-310,192c-16,13-37,24-48,24c-15,0-192-81-207-95c-2-2,14-49,34-104  c43-117,82-168,152-203c42-21,59-23,161-21c130,3,162-7,212-66c142-168,234-196,399-120c92,42,148,44,212,5c111-66,146-78,216-74  c85,5,130,27,203,99c68,67,109,84,188,75c154-18,179-18,230-1c66,22,115,72,165,170c49,95,79,118,173,135c204,36,274,106,293,291  c10,105,34,142,128,193c112,61,137,87,163,163c21,65,21,68,5,158c-29,162-24,182,69,286c79,89,100,166,71,263  c-16,54-113,206-130,205C3100,3979,3055,3958,3005,3933z"></path>	<path fill="#FF6600" d="M478,3727c-125-62-227-116-227-121c-1-8,304-635,313-643c3-3,455,213,465,222c2,3-8,32-24,64l-28,60l-61-31  c-34-17-103-50-154-74l-92-43l-40,79c-22,44-40,82-40,85s63,36,140,75l140,70l-30,60l-30,60l-141-71c-78-38-142-69-144-67  c-5,6-55,108-55,113c0,3,68,39,150,80c83,41,150,77,150,80c0,10-55,115-60,114C707,3839,603,3788,478,3727z"></path>	<path fill="#FF6600" d="M2696,3780c-58-33-66-44-66-91c0-59-27-198-55-284c-169-518-655-875-1193-875c-259,0-454,56-697,199l-50,29  l-62-26c-35-14-63-29-63-33c0-12,158-113,245-157c182-90,348-131,565-138c248-9,434,28,646,130c130,63,208,113,319,207  c235,198,405,502,459,818c16,97,22,252,9,250C2748,3808,2723,3795,2696,3780z"></path>	<path fill="#FF6600" d="M1643,3250c-463-229-845-419-849-423c-9-9,140-77,241-110c132-43,192-52,345-51c118,0,162,4,235,23  c231,59,425,170,578,330c120,126,196,256,250,428c25,79,53,211,46,217C2487,3666,2106,3479,1643,3250z"></path>	<path fill="#FF6600" d="M-282,3351c-43-20-78-40-78-45c0-8,306-635,314-643c3-3,455,213,465,222c2,3-8,32-24,64l-28,60l-61-31  c-34-17-103-50-154-74l-92-43l-133,263l-132,263L-282,3351z"></path></g></svg>