<svg width="1203" height="321" viewBox="0 0 1203 321" fill="none" xmlns="http://www.w3.org/2000/svg">
<rect width="1203" height="321" fill="#F4580E"/>
<path d="M320.376 216V129.6H333.432V206.976H371.32V216H320.376ZM406.851 216.704C404.12 216.704 401.454 216.512 398.851 216.128C396.291 215.787 393.902 215.147 391.683 214.208C389.464 213.269 387.502 211.947 385.795 210.24C384.131 208.491 382.83 206.272 381.891 203.584C380.952 200.896 380.483 197.632 380.483 193.792C380.483 190.08 380.952 186.923 381.891 184.32C382.83 181.717 384.11 179.584 385.731 177.92C387.395 176.213 389.315 174.891 391.491 173.952C393.71 173.013 396.078 172.373 398.595 172.032C401.112 171.648 403.715 171.456 406.403 171.456H431.171V167.168C431.171 162.603 430.382 158.955 428.803 156.224C427.267 153.451 425.091 151.445 422.275 150.208C419.502 148.971 416.28 148.352 412.611 148.352C409.24 148.352 406.254 148.928 403.651 150.08C401.048 151.232 398.915 153.088 397.251 155.648C395.587 158.208 394.478 161.579 393.923 165.76L381.251 162.368C381.848 158.229 383 154.709 384.707 151.808C386.414 148.907 388.632 146.56 391.363 144.768C394.094 142.933 397.23 141.589 400.771 140.736C404.355 139.883 408.28 139.456 412.547 139.456C419.118 139.456 424.75 140.373 429.443 142.208C434.179 144.043 437.806 147.029 440.323 151.168C442.883 155.264 444.163 160.789 444.163 167.744V216H433.283L432.195 206.4C431.768 207.467 430.894 208.597 429.571 209.792C428.291 210.987 426.584 212.117 424.451 213.184C422.36 214.251 419.843 215.104 416.899 215.744C413.955 216.384 410.606 216.704 406.851 216.704ZM409.667 208.384C412.526 208.384 415.171 208.107 417.603 207.552C420.035 206.997 422.19 206.251 424.067 205.312C425.944 204.331 427.48 203.243 428.675 202.048C429.912 200.811 430.744 199.531 431.171 198.208L431.427 178.88H409.347C407.256 178.88 405.272 179.072 403.395 179.456C401.518 179.84 399.832 180.544 398.339 181.568C396.888 182.592 395.736 184.064 394.883 185.984C394.072 187.904 393.667 190.4 393.667 193.472C393.667 196.544 394.094 199.061 394.947 201.024C395.8 202.944 396.974 204.437 398.467 205.504C400.003 206.571 401.731 207.317 403.651 207.744C405.571 208.171 407.576 208.384 409.667 208.384ZM458.089 216V140.16H468.201L471.017 154.88V216H458.089ZM505.641 216V172.736C505.641 163.904 504.318 157.653 501.673 153.984C499.07 150.315 495.102 148.48 489.769 148.48C484.393 148.48 479.849 150.464 476.137 154.432C472.468 158.357 470.633 163.307 470.633 169.28L464.361 165.248C464.361 159.061 467.156 153.216 472.745 147.712C478.377 142.165 485.609 139.392 494.441 139.392C503.23 139.392 509.438 142.357 513.065 148.288C516.734 154.176 518.569 162.283 518.569 172.608V216H505.641ZM582.192 216L581.36 203.52V115.52H594.224V216H582.192ZM557.36 216.512C548.272 216.512 541.445 213.312 536.88 206.912C532.357 200.512 530.096 190.848 530.096 177.92C530.096 164.992 532.357 155.349 536.88 148.992C541.445 142.635 548.272 139.456 557.36 139.456C565.68 139.456 572.699 141.547 578.416 145.728C584.133 149.867 586.992 154.197 586.992 158.72L581.424 165.568C581.424 161.173 579.483 157.227 575.6 153.728C571.76 150.229 567.131 148.48 561.712 148.48C556.037 148.48 551.536 150.571 548.208 154.752C544.88 158.891 543.216 166.635 543.216 177.984C543.216 189.333 544.88 197.099 548.208 201.28C551.536 205.419 556.037 207.488 561.712 207.488C567.131 207.488 571.76 205.76 575.6 202.304C579.483 198.805 581.424 194.837 581.424 190.4L586.992 197.312C586.992 201.792 584.133 206.123 578.416 210.304C572.699 214.443 565.68 216.512 557.36 216.512ZM638.876 216V129.6H660.188L682.972 202.304L705.756 129.6H727.068V216H714.14V138.752H713.884L690.78 211.264H675.164L651.996 138.752H651.74V216H638.876ZM766.601 216.704C763.87 216.704 761.204 216.512 758.601 216.128C756.041 215.787 753.652 215.147 751.433 214.208C749.214 213.269 747.252 211.947 745.545 210.24C743.881 208.491 742.58 206.272 741.641 203.584C740.702 200.896 740.233 197.632 740.233 193.792C740.233 190.08 740.702 186.923 741.641 184.32C742.58 181.717 743.86 179.584 745.481 177.92C747.145 176.213 749.065 174.891 751.241 173.952C753.46 173.013 755.828 172.373 758.345 172.032C760.862 171.648 763.465 171.456 766.153 171.456H790.921V167.168C790.921 162.603 790.132 158.955 788.553 156.224C787.017 153.451 784.841 151.445 782.025 150.208C779.252 148.971 776.03 148.352 772.361 148.352C768.99 148.352 766.004 148.928 763.401 150.08C760.798 151.232 758.665 153.088 757.001 155.648C755.337 158.208 754.228 161.579 753.673 165.76L741.001 162.368C741.598 158.229 742.75 154.709 744.457 151.808C746.164 148.907 748.382 146.56 751.113 144.768C753.844 142.933 756.98 141.589 760.521 140.736C764.105 139.883 768.03 139.456 772.297 139.456C778.868 139.456 784.5 140.373 789.193 142.208C793.929 144.043 797.556 147.029 800.073 151.168C802.633 155.264 803.913 160.789 803.913 167.744V216H793.033L791.945 206.4C791.518 207.467 790.644 208.597 789.321 209.792C788.041 210.987 786.334 212.117 784.201 213.184C782.11 214.251 779.593 215.104 776.649 215.744C773.705 216.384 770.356 216.704 766.601 216.704ZM769.417 208.384C772.276 208.384 774.921 208.107 777.353 207.552C779.785 206.997 781.94 206.251 783.817 205.312C785.694 204.331 787.23 203.243 788.425 202.048C789.662 200.811 790.494 199.531 790.921 198.208L791.177 178.88H769.097C767.006 178.88 765.022 179.072 763.145 179.456C761.268 179.84 759.582 180.544 758.089 181.568C756.638 182.592 755.486 184.064 754.633 185.984C753.822 187.904 753.417 190.4 753.417 193.472C753.417 196.544 753.844 199.061 754.697 201.024C755.55 202.944 756.724 204.437 758.217 205.504C759.753 206.571 761.481 207.317 763.401 207.744C765.321 208.171 767.326 208.384 769.417 208.384ZM849.104 216.832C843.515 216.832 838.843 215.616 835.088 213.184C831.333 210.752 829.456 206.208 829.456 199.552V149.248H811.728V140.16H829.456V123.008H842.448V140.16H867.472V149.248H842.448V196.48C842.448 201.131 843.387 204.203 845.264 205.696C847.184 207.189 849.915 207.936 853.456 207.936C856.571 207.936 859.6 207.445 862.544 206.464V215.232C858.277 216.299 853.797 216.832 849.104 216.832ZM911.604 216.832C906.015 216.832 901.343 215.616 897.588 213.184C893.833 210.752 891.956 206.208 891.956 199.552V149.248H874.228V140.16H891.956V123.008H904.948V140.16H929.972V149.248H904.948V196.48C904.948 201.131 905.887 204.203 907.764 205.696C909.684 207.189 912.415 207.936 915.956 207.936C919.071 207.936 922.1 207.445 925.044 206.464V215.232C920.777 216.299 916.297 216.832 911.604 216.832ZM970.879 216.64C959.103 216.64 950.612 213.227 945.407 206.4C940.244 199.573 937.663 190.08 937.663 177.92C937.663 165.12 940.308 155.52 945.599 149.12C950.89 142.677 959.252 139.456 970.687 139.456C982.42 139.456 990.804 142.677 995.839 149.12C1000.92 155.52 1003.46 165.056 1003.46 177.728C1003.46 179.221 1003.37 180.608 1003.2 181.888H948.799V173.824H991.295L990.591 175.232C990.591 165.333 988.842 158.336 985.343 154.24C981.844 150.101 976.959 148.032 970.687 148.032C964.586 148.032 959.636 150.187 955.839 154.496C952.084 158.805 950.207 166.613 950.207 177.92C950.207 188.629 952.02 196.352 955.647 201.088C959.316 205.781 964.394 208.128 970.879 208.128V216.64ZM970.879 208.128C974.591 208.128 977.812 207.509 980.543 206.272C983.316 204.992 985.45 202.859 986.943 199.872C988.479 196.885 989.61 193.536 990.335 189.824L1001.98 192.96C1001.26 198.165 999.572 202.581 996.927 206.208C994.282 209.835 990.868 212.48 986.687 214.144C982.548 215.808 977.279 216.64 970.879 216.64V208.128ZM1061.65 175.552C1061.65 165.141 1060.39 158.037 1057.88 154.24C1055.4 150.443 1051.73 148.544 1046.87 148.544C1041.36 148.544 1037.03 150.4 1033.88 154.112C1030.76 157.781 1029.2 161.941 1029.2 166.592L1024.21 162.944C1024.21 156.459 1026.69 150.933 1031.64 146.368C1036.58 141.803 1043.22 139.52 1051.54 139.52C1060.2 139.52 1066.2 142.4 1069.52 148.16C1072.89 153.877 1074.58 163.008 1074.58 175.552H1061.65ZM1016.34 216V140.16H1026.52L1029.27 154.816V216H1016.34ZM1119.69 216.576C1110.61 216.576 1103.25 214.933 1097.61 211.648C1091.98 208.32 1088.48 202.432 1087.12 193.984L1098.57 190.016C1099.3 196.416 1101.47 201.024 1105.1 203.84C1108.77 206.613 1113.7 208 1119.89 208C1125.73 208 1130.13 206.955 1133.07 204.864C1136.01 202.773 1137.49 200.064 1137.49 196.736C1137.49 191.915 1135.22 188.672 1130.7 187.008C1126.22 185.344 1120.61 183.765 1113.87 182.272C1106.1 180.608 1099.79 178.24 1094.93 175.168C1090.1 172.096 1087.69 166.933 1087.69 159.68C1087.69 153.109 1090.36 148.117 1095.69 144.704C1101.07 141.248 1108.41 139.52 1117.71 139.52C1126.93 139.52 1134.22 141.205 1139.6 144.576C1144.97 147.904 1148.28 153.472 1149.52 161.28L1138.06 165.184C1137.34 159.552 1135.22 155.307 1131.73 152.448C1128.23 149.547 1123.49 148.096 1117.52 148.096C1111.76 148.096 1107.47 149.141 1104.65 151.232C1101.88 153.323 1100.49 156.139 1100.49 159.68C1100.49 164.075 1102.61 167.104 1106.83 168.768C1111.1 170.389 1116.51 171.925 1123.09 173.376C1130.77 174.997 1137.21 177.259 1142.41 180.16C1147.66 183.019 1150.29 188.224 1150.29 195.776C1150.29 202.773 1147.68 208 1142.48 211.456C1137.31 214.869 1129.72 216.576 1119.69 216.576Z" fill="white"/>
<rect x="19" y="24" width="242" height="272" fill="white"/>
<path d="M50.3 222V120.75H65.6V211.425H110V222H50.3ZM122.956 222V120.75H147.931L174.631 205.95L201.331 120.75H226.306V222H211.156V131.475H210.856L183.781 216.45H165.481L138.331 131.475H138.031V222H122.956Z" fill="#F4580E"/>
</svg>
